<svg width="25" height="25" viewBox="0 0 25 25" fill="none" xmlns="http://www.w3.org/2000/svg">
<path d="M14.1935 2.59775C9.77376 2.59775 6.19326 6.18 6.19326 10.5977C6.19098 12.0531 6.58769 13.4813 7.34026 14.727L3.46151 18.6057L3.47501 18.6192C3.06101 19.0155 2.80676 19.578 2.80676 20.2137C2.80651 21.442 3.78501 22.4025 5.01201 22.4022C5.63876 22.402 6.19926 22.1512 6.59926 21.7432L6.60901 21.753L10.611 17.7507C11.7227 18.3089 12.9496 18.599 14.1935 18.5977C18.6135 18.5977 22.1933 15.016 22.1933 10.5977C22.1933 6.18 18.6133 2.59775 14.1935 2.59775ZM14.242 15.452C11.4795 15.452 9.24176 13.2135 9.24176 10.452C9.24176 7.691 11.4795 5.452 14.242 5.452C17.0045 5.452 19.2418 7.69075 19.2418 10.452C19.242 13.2135 17.0045 15.452 14.242 15.452Z" fill="black"/>
</svg>
